<?xml version="1.0" encoding="utf-8"?>
<!-- Generator: Adobe Illustrator 22.1.0, SVG Export Plug-In . SVG Version: 6.00 Build 0)  -->
<svg version="1.1" id="Layer_1" xmlns="http://www.w3.org/2000/svg" xmlns:xlink="http://www.w3.org/1999/xlink" x="0px" y="0px"
	 viewBox="0 0 288 288" style="enable-background:new 0 0 288 288;" xml:space="preserve">
<style type="text/css">
	.st0{fill:#D9D8D3;}
</style>
<path id="github" class="st0" d="M202.8,33.4c0,0,4.3-4.9,16.4-16.2c0,0,8.3-7.7,17.7-9.7c0,0,4.7-0.7,4.5,2.9
	c0,0,3.4,10.6,3.4,18.9s-3.6,20-3.6,20s-2.1,3.8,0.6,6.2s12.1,10.8,14,30.4c0,0,3.4,26.2,1.7,41.4s-5.5,21.3-5.5,21.3
	s-6.8,22.3-40.8,35.7c0,0-4.2,2.5-23.2,6c0,0-4.9,0.7-0.7,3.7c0,0,6.2,8.1,6.7,21.9l0,61.8c0,0,0.9,4.5-3,4.5h-68.2
	c0,0-2.1,0-2.1-4.5v-32.1c0,0-22.3,5.1-38.5-2.1c0,0-12.8-3-24-22.5s-17.2-27.6-21.3-31.7c-4.2-4.2-6.4-6-6.4-6s6.1-7.4,25,3.1
	c0,0,9.1,7,12.5,15.9c0,0,5.6,9.5,14.6,13.9c0,0,8.3,5.3,20.2,4.9c0,0,10.8-0.4,14.9-2.1c4.2-1.7,3.4-3.4,3.4-3.4s0.6-12.2,3.8-17.1
	c0,0,2.1-4.8,4-6.8c1.9-2.1-1.7-1.5-1.7-1.5s-18.5-1.5-36.1-11.5s-27-27.4-27-27.4s-7-11.7-7.2-28.3s0.8-29.1,0.8-29.1
	s1.7-17.4,7.2-28.1c0,0,3.2-5.5,6.8-9.3c3.6-3.8,2.1-6.6,2.1-6.6s-4-8.3-3-19.6s3.4-20,3.4-20s0.9-4.5,6.4-1.7
	c0,0,10.4,2.8,17.4,10.2s11.9,12.8,12.8,14.4c0.9,1.5,0.6,1.7,2.1,0.9c1.5-0.8,8.9-6.2,24.5-7.6c15.7-1.3,28.9-0.9,28.9-0.9
	S186,25.1,202.8,33.4z"/>
</svg>
