<svg id="Layer_1" data-name="Layer 1" xmlns="http://www.w3.org/2000/svg" viewBox="0 0 1003.3 634.7">
  <defs>
    <style>
      .cls-1 {
        fill: #c90412;
      }

      .cls-2 {
        fill: #950216;
      }

      .cls-3 {
        fill: #832236;
      }

      .cls-4 {
        fill: #6b2e3e;
      }

      .cls-5 {
        fill: #c93d58;
      }

      .cls-6 {
        fill: #793e59;
      }

      .cls-7 {
        fill: #ce4355;
      }

      .cls-8 {
        fill: #900114;
      }

      .cls-9 {
        fill: #ec3944;
      }

      .cls-10 {
        fill: #b9223c;
      }

      .cls-11 {
        fill: #f9555b;
      }

      .cls-12 {
        fill: #e95a55;
      }

      .cls-13 {
        fill: #ea3f4a;
      }

      .cls-14 {
        fill: #c92943;
      }

      .cls-15 {
        fill: #f2595a;
      }

      .cls-16 {
        fill: #f67362;
      }

      .cls-17 {
        fill: #ad0413;
      }

      .cls-18 {
        fill: #590813;
      }

      .cls-19 {
        fill: #89081d;
      }

      .cls-20 {
        fill: #ec2c10;
      }

      .cls-21 {
        fill: #610810;
      }

      .cls-22 {
        fill: #840d1c;
      }

      .cls-23 {
        fill: #eb111b;
      }

      .cls-24 {
        fill: #c60514;
      }

      .cls-25 {
        fill: #6d0717;
      }

      .cls-26 {
        fill: #df0d16;
      }

      .cls-27 {
        fill: #440711;
      }

      .cls-28, .cls-29 {
        fill: none;
        stroke: red;
        stroke-miterlimit: 10;
        stroke-width: 2.17px;
      }

      .cls-28 {
        opacity: 0.5;
      }
    </style>
  </defs>
  <title>kidneys</title>
  <polygon class="cls-1" points="392.45 185.67 392.45 105.88 339.26 29.88 348.76 168.57 392.45 185.67"/>
  <polygon class="cls-2" points="276.56 233.16 348.76 168.57 390.55 183.77 356.36 233.16 276.56 233.16"/>
  <polygon class="cls-3" points="337.36 255.96 276.56 233.16 356.36 233.16 337.36 255.96"/>
  <polygon class="cls-4" points="356.36 290.16 276.56 233.16 337.36 255.96 356.36 290.16"/>
  <polygon class="cls-5" points="356.36 290.16 356.36 343.36 265.16 366.15 261.36 290.16 276.56 233.16 356.36 290.16"/>
  <polygon class="cls-6" points="341.16 366.15 356.36 343.36 265.16 366.15 341.16 366.15"/>
  <polygon class="cls-4" points="375.35 419.35 341.16 366.15 265.16 366.15 375.35 419.35"/>
  <polygon class="cls-7" points="390.55 502.94 375.35 419.35 303.16 518.14 390.55 502.94"/>
  <polygon class="cls-8" points="333.56 575.13 390.55 502.94 303.16 518.14 333.56 575.13"/>
  <polygon class="cls-9" points="303.16 518.14 375.35 419.35 208.17 400.35 242.37 510.54 303.16 518.14"/>
  <polygon class="cls-10" points="333.56 575.13 303.16 518.14 242.37 510.54 246.16 586.53 333.56 575.13"/>
  <polygon class="cls-4" points="246.16 586.53 154.97 525.74 242.37 510.54 246.16 586.53"/>
  <polygon class="cls-11" points="375.35 419.35 265.16 366.15 208.17 400.35 375.35 419.35"/>
  <polygon class="cls-12" points="261.36 290.16 177.77 309.16 208.17 400.35 265.16 366.15 261.36 290.16"/>
  <polygon class="cls-13" points="261.36 290.16 276.56 233.16 196.77 214.17 177.77 309.16 261.36 290.16"/>
  <polygon class="cls-14" points="276.56 233.16 348.76 168.57 253.76 111.58 196.77 214.17 276.56 233.16"/>
  <polygon class="cls-15" points="348.76 168.57 253.76 111.58 234.77 24.18 341.16 31.78 348.76 168.57"/>
  <polygon class="cls-9" points="135.97 100.18 234.77 24.18 253.76 111.58 135.97 100.18"/>
  <polygon class="cls-16" points="135.97 100.18 132.18 149.57 196.77 214.17 253.76 111.58 135.97 100.18"/>
  <polygon class="cls-8" points="196.77 214.17 120.78 176.17 132.18 149.57 196.77 214.17"/>
  <polygon class="cls-4" points="196.77 214.17 86.58 202.77 120.78 176.17 196.77 214.17"/>
  <polygon class="cls-1" points="177.77 309.16 196.77 214.17 86.58 202.77 59.98 301.56 177.77 309.16"/>
  <polygon class="cls-14" points="208.17 400.35 109.38 430.75 82.78 404.15 59.98 301.56 177.77 309.16 208.17 400.35"/>
  <polygon class="cls-4" points="132.18 449.75 208.17 400.35 109.38 430.75 132.18 449.75"/>
  <polygon class="cls-17" points="443.75 594.13 474.14 521.94 443.75 457.35 462.75 521.94 443.75 594.13"/>
  <polygon class="cls-8" points="208.17 400.35 139.78 483.94 132.18 449.75 208.17 400.35"/>
  <polygon class="cls-3" points="208.17 400.35 242.37 510.54 154.97 525.74 139.78 483.94 208.17 400.35"/>
  <polygon class="cls-18" points="348.76 238.33 397.39 301.56 409.55 289.4 348.76 238.33"/>
  <polygon class="cls-19" points="432.35 278.76 371.05 211.94 348.76 240.76 405.75 290.16 432.35 278.76"/>
  <polygon class="cls-20" points="405.75 290.16 432.35 278.76 462.75 278.76 477.94 301.56 443.75 301.56 405.75 290.16"/>
  <polygon class="cls-21" points="443.75 324.36 443.75 301.56 477.94 301.56 470.35 320.56 443.75 324.36"/>
  <polygon class="cls-22" points="443.75 324.36 420.95 331.96 409.55 324.36 443.75 301.56 443.75 324.36"/>
  <polygon class="cls-17" points="386.75 309.16 405.75 290.16 443.75 301.56 371.55 324.36 386.75 309.16"/>
  <polygon class="cls-23" points="443.75 301.56 382.95 343.36 371.55 324.36 443.75 301.56"/>
  <polygon class="cls-19" points="386.75 309.16 352.95 284.03 356.36 290.16 356.36 322.46 371.55 324.36 386.75 309.16"/>
  <polygon class="cls-18" points="375.35 354.75 386.75 347.15 371.55 324.36 356.36 320.56 375.35 354.75"/>
  <polygon class="cls-24" points="382.95 343.36 409.55 324.36 420.95 331.96 420.95 358.55 384.21 348.85 382.95 343.36"/>
  <polygon class="cls-25" points="420.95 358.55 360.96 396.95 341.16 366.15 386.75 347.15 420.95 358.55"/>
  <polygon class="cls-26" points="420.95 358.55 420.95 331.96 458.95 350.95 470.35 373.75 420.95 358.55"/>
  <polygon class="cls-20" points="496.94 377.55 470.35 373.75 458.95 350.95 489.34 358.55 496.94 377.55"/>
  <polygon class="cls-18" points="366.58 405.71 428.55 377.55 420.95 358.55 360.15 396.55 366.58 405.71"/>
  <polygon class="cls-27" points="485.54 392.75 428.55 377.55 420.95 358.55 470.35 373.75 496.94 377.55 485.54 392.75"/>
  <polygon class="cls-27" points="443.75 594.13 462.75 521.94 447.55 506.74 451.35 521.94 443.75 594.13"/>
  <polygon class="cls-25" points="462.75 521.94 428.55 377.55 400.71 390.2 417.15 411.75 447.55 506.74 462.75 521.94"/>
  <polygon class="cls-20" points="458.95 385.66 474.14 521.94 451.02 472.44 428.55 377.55 458.95 385.66"/>
  <polygon class="cls-1" points="632.03 183.92 632.03 104.12 685.22 28.13 675.72 166.82 632.03 183.92"/>
  <polygon class="cls-2" points="747.92 231.41 675.72 166.82 633.93 182.02 668.12 231.41 747.92 231.41"/>
  <polygon class="cls-3" points="687.12 254.21 747.92 231.41 668.12 231.41 687.12 254.21"/>
  <polygon class="cls-4" points="668.12 288.41 747.92 231.41 687.12 254.21 668.12 288.41"/>
  <polygon class="cls-5" points="668.12 288.41 668.12 341.6 759.32 364.4 763.12 288.41 747.92 231.41 668.12 288.41"/>
  <polygon class="cls-6" points="683.32 364.4 668.12 341.6 759.32 364.4 683.32 364.4"/>
  <polygon class="cls-4" points="649.13 417.6 683.32 364.4 759.32 364.4 649.13 417.6"/>
  <polygon class="cls-7" points="633.93 501.19 649.13 417.6 721.32 516.39 633.93 501.19"/>
  <polygon class="cls-8" points="690.92 573.38 633.93 501.19 721.32 516.39 690.92 573.38"/>
  <polygon class="cls-9" points="721.32 516.39 649.13 417.6 816.31 398.6 782.11 508.79 721.32 516.39"/>
  <polygon class="cls-10" points="690.92 573.38 721.32 516.39 782.11 508.79 778.31 584.78 690.92 573.38"/>
  <polygon class="cls-4" points="778.31 584.78 869.51 523.99 782.11 508.79 778.31 584.78"/>
  <polygon class="cls-11" points="649.13 417.6 759.32 364.4 816.31 398.6 649.13 417.6"/>
  <polygon class="cls-12" points="763.12 288.41 846.71 307.41 816.31 398.6 759.32 364.4 763.12 288.41"/>
  <polygon class="cls-13" points="763.12 288.41 747.92 231.41 827.71 212.41 846.71 307.41 763.12 288.41"/>
  <polygon class="cls-14" points="747.92 231.41 675.72 166.82 770.72 109.82 827.71 212.41 747.92 231.41"/>
  <polygon class="cls-15" points="675.72 166.82 770.72 109.82 789.71 22.43 683.32 30.03 675.72 166.82"/>
  <polygon class="cls-9" points="888.5 98.42 789.71 22.43 770.72 109.82 888.5 98.42"/>
  <polygon class="cls-16" points="888.5 98.42 892.3 147.82 827.71 212.41 770.72 109.82 888.5 98.42"/>
  <polygon class="cls-8" points="827.71 212.41 903.7 174.42 892.3 147.82 827.71 212.41"/>
  <polygon class="cls-4" points="827.71 212.41 937.9 201.02 903.7 174.42 827.71 212.41"/>
  <polygon class="cls-1" points="846.71 307.41 827.71 212.41 937.9 201.02 964.5 299.81 846.71 307.41"/>
  <polygon class="cls-14" points="816.31 398.6 915.1 429 941.7 402.4 964.5 299.81 846.71 307.41 816.31 398.6"/>
  <polygon class="cls-4" points="892.3 447.99 816.31 398.6 915.1 429 892.3 447.99"/>
  <polygon class="cls-17" points="580.73 592.38 550.34 520.19 580.73 455.59 561.73 520.19 580.73 592.38"/>
  <polygon class="cls-8" points="816.31 398.6 884.71 482.19 892.3 447.99 816.31 398.6"/>
  <polygon class="cls-3" points="816.31 398.6 782.11 508.79 869.51 523.99 884.71 482.19 816.31 398.6"/>
  <polygon class="cls-18" points="675.72 236.58 627.09 299.81 614.93 287.65 675.72 236.58"/>
  <polygon class="cls-19" points="592.13 277.01 653.43 210.19 675.72 239.01 618.73 288.41 592.13 277.01"/>
  <polygon class="cls-20" points="618.73 288.41 592.13 277.01 561.73 277.01 546.53 299.81 580.73 299.81 618.73 288.41"/>
  <polygon class="cls-21" points="580.73 322.61 580.73 299.81 546.53 299.81 554.13 318.81 580.73 322.61"/>
  <polygon class="cls-22" points="580.73 322.61 603.53 330.2 614.93 322.61 580.73 299.81 580.73 322.61"/>
  <polygon class="cls-17" points="637.73 307.41 618.73 288.41 580.73 299.81 652.92 322.61 637.73 307.41"/>
  <polygon class="cls-23" points="580.73 299.81 641.53 341.6 652.92 322.61 580.73 299.81"/>
  <polygon class="cls-19" points="637.73 307.41 671.53 282.28 668.12 288.41 668.12 320.7 652.92 322.61 637.73 307.41"/>
  <polygon class="cls-18" points="649.13 353 637.73 345.4 652.92 322.61 668.12 318.81 649.13 353"/>
  <polygon class="cls-24" points="641.53 341.6 614.93 322.61 603.53 330.2 603.53 356.8 640.26 347.1 641.53 341.6"/>
  <polygon class="cls-25" points="603.53 356.8 663.52 395.2 683.32 364.4 637.73 345.4 603.53 356.8"/>
  <polygon class="cls-26" points="603.53 356.8 603.53 330.2 565.53 349.2 554.13 372 603.53 356.8"/>
  <polygon class="cls-20" points="527.54 375.8 554.13 372 565.53 349.2 535.14 356.8 527.54 375.8"/>
  <polygon class="cls-18" points="657.89 403.96 595.93 375.8 603.53 356.8 664.32 394.8 657.89 403.96"/>
  <polygon class="cls-27" points="538.94 391 595.93 375.8 603.53 356.8 554.13 372 527.54 375.8 538.94 391"/>
  <polygon class="cls-27" points="580.73 592.38 561.73 520.19 576.93 504.99 573.13 520.19 580.73 592.38"/>
  <polygon class="cls-25" points="561.73 520.19 595.93 375.8 623.77 388.45 607.33 410 576.93 504.99 561.73 520.19"/>
  <polygon class="cls-20" points="565.53 383.91 550.34 520.19 573.46 470.69 595.93 375.8 565.53 383.91"/>
  <polygon class="cls-28" points="369.15 182.47 369.15 94.2 310.31 10.15 320.81 163.55 369.15 182.47"/>
  <polygon class="cls-28" points="240.96 235 320.81 163.55 367.05 180.37 329.22 235 240.96 235"/>
  <polygon class="cls-28" points="308.2 260.22 240.96 235 329.22 235 308.2 260.22"/>
  <polygon class="cls-28" points="329.22 298.05 240.96 235 308.2 260.22 329.22 298.05"/>
  <polygon class="cls-28" points="329.22 298.05 329.22 356.89 228.35 382.11 224.15 298.05 240.96 235 329.22 298.05"/>
  <polygon class="cls-28" points="312.41 382.11 329.22 356.89 228.35 382.11 312.41 382.11"/>
  <polygon class="cls-28" points="350.23 440.95 312.41 382.11 228.35 382.11 350.23 440.95"/>
  <polygon class="cls-28" points="367.05 533.41 350.23 440.95 270.38 550.22 367.05 533.41"/>
  <polygon class="cls-28" points="304 613.27 367.05 533.41 270.38 550.22 304 613.27"/>
  <polygon class="cls-28" points="270.38 550.22 350.23 440.95 165.31 419.93 203.13 541.82 270.38 550.22"/>
  <polygon class="cls-28" points="304 613.27 270.38 550.22 203.13 541.82 207.34 625.87 304 613.27"/>
  <polygon class="cls-28" points="207.34 625.87 106.47 558.63 203.13 541.82 207.34 625.87"/>
  <polygon class="cls-28" points="350.23 440.95 228.35 382.11 165.31 419.93 350.23 440.95"/>
  <polygon class="cls-28" points="224.15 298.05 131.68 319.06 165.31 419.93 228.35 382.11 224.15 298.05"/>
  <polygon class="cls-28" points="224.15 298.05 240.96 235 152.7 213.99 131.68 319.06 224.15 298.05"/>
  <polygon class="cls-28" points="240.96 235 320.81 163.55 215.74 100.51 152.7 213.99 240.96 235"/>
  <polygon class="cls-28" points="320.81 163.55 215.74 100.51 194.73 3.84 312.41 12.25 320.81 163.55"/>
  <polygon class="cls-28" points="85.45 87.9 194.73 3.84 215.74 100.51 85.45 87.9"/>
  <polygon class="cls-28" points="85.45 87.9 81.25 142.54 152.7 213.99 215.74 100.51 85.45 87.9"/>
  <polygon class="cls-28" points="152.7 213.99 68.64 171.96 81.25 142.54 152.7 213.99"/>
  <polygon class="cls-28" points="152.7 213.99 30.81 201.38 68.64 171.96 152.7 213.99"/>
  <polygon class="cls-28" points="131.68 319.06 152.7 213.99 30.81 201.38 1.39 310.65 131.68 319.06"/>
  <polygon class="cls-28" points="165.31 419.93 56.03 453.56 26.61 424.13 1.39 310.65 131.68 319.06 165.31 419.93"/>
  <polygon class="cls-28" points="81.25 474.57 165.31 419.93 56.03 453.56 81.25 474.57"/>
  <polygon class="cls-28" points="425.89 634.28 459.51 554.42 425.89 482.98 446.9 554.42 425.89 634.28"/>
  <polygon class="cls-28" points="165.31 419.93 89.65 512.39 81.25 474.57 165.31 419.93"/>
  <polygon class="cls-28" points="165.31 419.93 203.13 541.82 106.47 558.63 89.65 512.39 165.31 419.93"/>
  <polygon class="cls-28" points="320.81 240.72 374.61 310.65 388.06 297.21 320.81 240.72"/>
  <polygon class="cls-28" points="413.28 285.44 345.47 211.53 320.81 243.41 383.86 298.05 413.28 285.44"/>
  <polygon class="cls-28" points="383.86 298.05 413.28 285.44 446.9 285.44 463.71 310.65 425.89 310.65 383.86 298.05"/>
  <polygon class="cls-28" points="425.89 335.87 425.89 310.65 463.71 310.65 455.31 331.67 425.89 335.87"/>
  <polygon class="cls-28" points="425.89 335.87 400.67 344.28 388.06 335.87 425.89 310.65 425.89 335.87"/>
  <polygon class="cls-28" points="362.84 319.06 383.86 298.05 425.89 310.65 346.03 335.87 362.84 319.06"/>
  <polygon class="cls-28" points="425.89 310.65 358.64 356.89 346.03 335.87 425.89 310.65"/>
  <polygon class="cls-28" points="362.84 319.06 325.45 291.27 329.22 298.05 329.22 333.77 346.03 335.87 362.84 319.06"/>
  <polygon class="cls-28" points="350.23 369.5 362.84 361.09 346.03 335.87 329.22 331.67 350.23 369.5"/>
  <polygon class="cls-28" points="358.64 356.89 388.06 335.87 400.67 344.28 400.67 373.7 360.04 362.96 358.64 356.89"/>
  <polygon class="cls-28" points="400.67 373.7 334.31 416.18 312.41 382.11 362.84 361.09 400.67 373.7"/>
  <polygon class="cls-28" points="400.67 373.7 400.67 344.28 442.7 365.29 455.31 390.51 400.67 373.7"/>
  <polygon class="cls-28" points="484.73 394.71 455.31 390.51 442.7 365.29 476.32 373.7 484.73 394.71"/>
  <polygon class="cls-28" points="340.54 425.86 409.07 394.71 400.67 373.7 333.42 415.73 340.54 425.86"/>
  <polygon class="cls-28" points="472.12 411.52 409.07 394.71 400.67 373.7 455.31 390.51 484.73 394.71 472.12 411.52"/>
  <polygon class="cls-28" points="425.89 634.28 446.9 554.42 430.09 537.61 434.29 554.42 425.89 634.28"/>
  <polygon class="cls-28" points="446.9 554.42 409.07 394.71 378.28 408.71 396.47 432.54 430.09 537.61 446.9 554.42"/>
  <polygon class="cls-28" points="442.7 403.68 459.51 554.42 433.93 499.67 409.07 394.71 442.7 403.68"/>
  <polygon class="cls-28" points="634.15 180.53 634.15 92.27 692.99 8.21 682.48 161.62 634.15 180.53"/>
  <polygon class="cls-28" points="762.34 233.06 682.48 161.62 636.25 178.43 674.08 233.06 762.34 233.06"/>
  <polygon class="cls-28" points="695.09 258.28 762.34 233.06 674.08 233.06 695.09 258.28"/>
  <polygon class="cls-28" points="674.08 296.11 762.34 233.06 695.09 258.28 674.08 296.11"/>
  <polygon class="cls-28" points="674.08 296.11 674.08 354.95 774.95 380.17 779.15 296.11 762.34 233.06 674.08 296.11"/>
  <polygon class="cls-28" points="690.89 380.17 674.08 354.95 774.95 380.17 690.89 380.17"/>
  <polygon class="cls-28" points="653.06 439.01 690.89 380.17 774.95 380.17 653.06 439.01"/>
  <polygon class="cls-28" points="636.25 531.47 653.06 439.01 732.92 548.28 636.25 531.47"/>
  <polygon class="cls-28" points="699.29 611.33 636.25 531.47 732.92 548.28 699.29 611.33"/>
  <polygon class="cls-28" points="732.92 548.28 653.06 439.01 837.99 417.99 800.16 539.88 732.92 548.28"/>
  <polygon class="cls-28" points="699.29 611.33 732.92 548.28 800.16 539.88 795.96 623.94 699.29 611.33"/>
  <polygon class="cls-28" points="795.96 623.94 896.83 556.69 800.16 539.88 795.96 623.94"/>
  <polygon class="cls-28" points="653.06 439.01 774.95 380.17 837.99 417.99 653.06 439.01"/>
  <polygon class="cls-28" points="779.15 296.11 871.61 317.12 837.99 417.99 774.95 380.17 779.15 296.11"/>
  <polygon class="cls-28" points="779.15 296.11 762.34 233.06 850.6 212.05 871.61 317.12 779.15 296.11"/>
  <polygon class="cls-28" points="762.34 233.06 682.48 161.62 787.55 98.57 850.6 212.05 762.34 233.06"/>
  <polygon class="cls-28" points="682.48 161.62 787.55 98.57 808.57 1.9 690.89 10.31 682.48 161.62"/>
  <polygon class="cls-28" points="917.85 85.96 808.57 1.9 787.55 98.57 917.85 85.96"/>
  <polygon class="cls-28" points="917.85 85.96 922.05 140.6 850.6 212.05 787.55 98.57 917.85 85.96"/>
  <polygon class="cls-28" points="850.6 212.05 934.66 170.02 922.05 140.6 850.6 212.05"/>
  <polygon class="cls-28" points="850.6 212.05 972.48 199.44 934.66 170.02 850.6 212.05"/>
  <polygon class="cls-28" points="871.61 317.12 850.6 212.05 972.48 199.44 1001.9 308.72 871.61 317.12"/>
  <polygon class="cls-28" points="837.99 417.99 947.26 451.62 976.69 422.2 1001.9 308.72 871.61 317.12 837.99 417.99"/>
  <polygon class="cls-28" points="922.05 472.63 837.99 417.99 947.26 451.62 922.05 472.63"/>
  <polygon class="cls-28" points="577.41 632.34 543.78 552.49 577.41 481.04 556.39 552.49 577.41 632.34"/>
  <polygon class="cls-28" points="837.99 417.99 913.64 510.46 922.05 472.63 837.99 417.99"/>
  <polygon class="cls-28" points="837.99 417.99 800.16 539.88 896.83 556.69 913.64 510.46 837.99 417.99"/>
  <polygon class="cls-28" points="682.48 238.78 628.68 308.72 615.24 295.27 682.48 238.78"/>
  <polygon class="cls-28" points="590.02 283.5 657.82 209.59 682.48 241.47 619.44 296.11 590.02 283.5"/>
  <polygon class="cls-28" points="619.44 296.11 590.02 283.5 556.39 283.5 539.58 308.72 577.41 308.72 619.44 296.11"/>
  <polygon class="cls-28" points="577.41 333.94 577.41 308.72 539.58 308.72 547.99 329.73 577.41 333.94"/>
  <polygon class="cls-28" points="577.41 333.94 602.63 342.34 615.24 333.94 577.41 308.72 577.41 333.94"/>
  <polygon class="cls-28" points="640.45 317.12 619.44 296.11 577.41 308.72 657.26 333.94 640.45 317.12"/>
  <polygon class="cls-28" points="577.41 308.72 644.65 354.95 657.26 333.94 577.41 308.72"/>
  <polygon class="cls-28" points="640.45 317.12 677.84 289.33 674.08 296.11 674.08 331.83 657.26 333.94 640.45 317.12"/>
  <polygon class="cls-28" points="653.06 367.56 640.45 359.15 657.26 333.94 674.08 329.73 653.06 367.56"/>
  <polygon class="cls-28" points="644.65 354.95 615.24 333.94 602.63 342.34 602.63 371.76 643.26 361.02 644.65 354.95"/>
  <polygon class="cls-28" points="602.63 371.76 668.99 414.24 690.89 380.17 640.45 359.15 602.63 371.76"/>
  <polygon class="cls-28" points="602.63 371.76 602.63 342.34 560.6 363.36 547.99 388.57 602.63 371.76"/>
  <polygon class="cls-28" points="518.57 392.77 547.99 388.57 560.6 363.36 526.97 371.76 518.57 392.77"/>
  <polygon class="cls-29" points="662.76 423.92 594.22 392.77 602.63 371.76 669.87 413.79 662.76 423.92"/>
  <polygon class="cls-28" points="531.18 409.59 594.22 392.77 602.63 371.76 547.99 388.57 518.57 392.77 531.18 409.59"/>
  <polygon class="cls-28" points="577.41 632.34 556.39 552.49 573.21 535.67 569 552.49 577.41 632.34"/>
  <polygon class="cls-28" points="556.39 552.49 594.22 392.77 625.01 406.77 606.83 430.6 573.21 535.67 556.39 552.49"/>
  <polygon class="cls-28" points="560.6 401.74 543.78 552.49 569.36 497.74 594.22 392.77 560.6 401.74"/>
</svg>
