<?xml version="1.0" encoding="utf-8"?>
<!-- Generator: Adobe Illustrator 22.1.0, SVG Export Plug-In . SVG Version: 6.00 Build 0)  -->
<svg version="1.1" id="Layer_1" xmlns="http://www.w3.org/2000/svg" xmlns:xlink="http://www.w3.org/1999/xlink" x="0px" y="0px"
	 viewBox="0 0 288 288" style="enable-background:new 0 0 288 288;" xml:space="preserve">
<style type="text/css">
	.st0{fill:#D9D8D3;}
</style>
<g id="linkin">
	<circle class="st0" cx="48.2" cy="44" r="30.1"/>
	<path class="st0" d="M26.2,95.6h39.4h4.5h1.4c0,0,1,0.3,1,1.2c0,0.8,0,160.5,0,160.5s0.3,1.8-1.3,1.8H24c0,0-1.6,0.3-1.6-1.6V98
		c0,0-0.6-2.4,1.6-2.4S26.2,95.6,26.2,95.6z"/>
	<path class="st0" d="M106.8,95.6H152c0,0,1.6,0.1,1.6,1.5v19.7c0,0,0.4,1.8,1.8,0.5c0,0,5.5-12.3,22.8-20.5s41.7-3.6,41.7-3.6
		s17.1,2.8,26.9,13.7c9.8,10.9,11.2,18.3,11.2,18.3s5.2,13.7,5.3,28.2c0,0,0.6,10.5,0.7,14v90.1c0,0,0.1,1.7-1.3,1.7h-48
		c0,0-1.6-0.4-1.7-2.4v-89.8c0,0,0.6-13.3-6.4-22.3c-7-9-16.3-8.7-16.3-8.7s-11.6-1.4-17.6,2.2c0,0-11.6,3.1-15.1,19.6
		c0,0-2.3,10.2-2,23.9v75.7c0,0,0,1.7-1.4,1.8h-47.5c0,0-1.7,0.7-1.7-4.8V97.5C105.1,97.5,105.1,95.6,106.8,95.6z"/>
</g>
</svg>
