<?xml version="1.0" encoding="utf-8"?>
<!-- Generator: Adobe Illustrator 22.1.0, SVG Export Plug-In . SVG Version: 6.00 Build 0)  -->
<svg version="1.1" id="Layer_1" xmlns="http://www.w3.org/2000/svg" xmlns:xlink="http://www.w3.org/1999/xlink" x="0px" y="0px"
	 viewBox="0 0 288 170.6" style="enable-background:new 0 0 288 170.6;" xml:space="preserve">
<style type="text/css">
	.st0{fill:#31A9AB;}
	.st1{opacity:0.86;}
	.st2{fill:none;stroke:#31A9AB;stroke-width:2;stroke-miterlimit:10;}
</style>
<g id="ct_1_">
	<g id="leftSquigle_1_">
		<path class="st0" d="M120.6,71.8c-3,4.5-6.2,8.8-9.8,12.8c-4.5,5.2-9.6,9.7-14.7,14.1c-3.5,3.1-7.2,6.3-11.4,8.3
			c-0.8,0.4-1.6,0.7-2.4,1c-0.5,0.2-1.1,0.3-1.6,0.4l-0.5,0.1c3.2-0.5,4.2-0.7,2.9-0.5c-0.2,0-0.4,0.1-0.7,0.1
			c-1.9,0.1-3.9,0-5.8-0.3c-8.2-1.5-15.7-6.5-22.4-11.7c-6-4.6-11.4-10-17.7-14.1c-1.1-0.7-2.2-1.4-3.5-1.8c-1.4-0.5-2.5-0.2-4-0.1
			c-1.6,0.2-3.6,0.2-4.7,1.6c-0.7,0.9-1.1,2.1-1.7,3c-0.8,1.2-2,2.1-3.4,2.4l0.3-0.1c3.4-0.4,4.4-0.6,2.9-0.6H22
			c-0.4-0.1-0.7-0.1-1.1-0.2c-0.7-0.2-1.4-0.4-2.1-0.7c-0.8-0.4-1.7-0.7-2.6-0.8c-1.5-0.1-3,0.2-4.4,0.5c-1.7,0.3-3.2,0.5-4.7,1.4
			c0.6-0.3,1.7-0.2,2.4-0.4c0.7-0.1,1.7-0.1,2.4-0.4c0.4-0.2,0.8-0.4,1.2-0.6c1.9-0.9-4,0.2-2.2,0.3c0.6,0,1.1,0.1,1.7,0.2
			c1.1,0.2,2.2,1,3.3,1.3c1.4,0.4,2.8,0.3,4.2,0.1c1.7-0.3,3.8-0.4,5.4-1.2c1.1-0.6,1.7-1.6,2.4-2.6c0.5-0.9,0.9-2.1,1.7-2.8
			c0.3-0.2,0.6-0.4,1-0.6c-4.9,2.2-5.7,0.6-3.8,0.7c0.2,0,0.5,0.1,0.7,0.1c2.7,0.6,5.1,2.6,7.3,4.3c3.4,2.6,6.6,5.4,9.8,8.1
			c7.3,6,15.1,12,23.9,14.7c2.1,0.6,4.2,1,6.4,1.1c2.5,0.1,5-0.3,7.6-0.7c2.2-0.4,4.4-0.9,6.4-1.8c2.1-1,4-2.2,5.9-3.7
			c2.7-2.1,5.3-4.3,7.8-6.6c3.2-2.9,6.4-5.7,9.5-8.8c4.8-5,9.1-10.4,13-16.3c-0.2,0.3-2.1,0.3-2.4,0.4c-0.6,0.1-1.1,0.2-1.7,0.3
			C121.2,71.7,120.7,71.8,120.6,71.8L120.6,71.8z"/>
	</g>
	<g id="rightSquigle_1_">
		<path class="st0" d="M276.5,106.4c-1.1,0-2.2,0.1-3.2,0.2c-0.5,0.1-1.1,0.2-1.6,0.2c-0.2,0.1-0.6,0.1-0.8,0.1
			c-0.2,0-0.4,0.1-0.6,0.1c-1.6,0.1-0.4,0.1,3.7,0h0.3c-1.6-0.1-2.2-1.4-3.1-2.6c-1.1-1.6-2.2-1.6-4-1.7c-1.6,0-3.7-0.4-5.1,0.4
			s-1.6,2.2-2.3,3.5c-0.4,0.9-1.1,1.6-2,1.8c-0.2,0.1-0.4,0.1-0.7,0.2c-0.9,0.2,3.1,0.1,3,0.1c-0.3-0.1-0.7-0.1-1.1-0.2
			c-1.7-0.4-3.3-1.1-4.9-1.9c-2.6-1.5-5.2-3.1-7.7-4.9c-8.9-6-17.4-12.7-25.7-19.6c-4.1-3.4-8.5-6.2-13.7-6.8c-2-0.2-4-0.2-6.1-0.1
			c-1.5,0-3,0.1-4.5,0.3c-0.9,0.1-1.7,0.4-2.5,0.7c-3.4,1.2-6.4,3.4-9.3,5.5c-5.5,4.1-10.6,8.8-15.9,13.3c-4,3.5-8.2,6.8-12.8,9.5
			c-2.2,1.2-4.5,2.4-7,2.8c-0.1,0-0.2,0-0.3,0.1c-1.6,0.2,4.1,0.1,3.7,0c-0.2-0.1-0.5-0.1-0.7-0.1c-0.4-0.1-0.9-0.2-1.3-0.5
			c-1.3-0.8-2.1-2.4-2.4-3.9c-0.4-1.7-0.3-3.4,0.1-5c-0.1,0.3-4.9-0.4-4.9,0c-0.6,3-0.4,7,2.2,8.8c0.7,0.4,1.5,0.7,2.3,0.7
			c1.9,0.1,3.8,0.1,5.7,0c4.9-0.4,9.6-3.9,13.6-6.7c9.1-6.7,17-15.3,26.6-21.5c2.2-1.4,4.5-2.8,7-3.4c0.4-0.1,0.7-0.1,1.1-0.2
			c0.9-0.1,4-0.2,0.9-0.2c-3,0-0.3,0.1,0.5,0.2c3.5,0.6,6.8,2,9.8,4.1c2.3,1.6,4.5,3.6,6.7,5.4c4.4,3.5,8.8,7,13.3,10.4
			c5,3.8,10.2,7.5,15.6,10.6c2.6,1.5,5.3,2.8,8.3,2.9c2,0.1,4.5,0.4,6.4-0.3c1.8-0.7,1.8-2.5,2.7-4c0.6-1,1.7-1.6,2.8-1.7h-0.3h0.4
			h-4.6c2.7,0.3,3,4,5.7,4.3c1.8,0.1,3.7,0.1,5.5,0c1.6-0.1,3.4-0.6,4.9-0.6c-0.1,0,0.7,0,0.7,0s-0.8,0-0.7,0
			C278.8,106.4,277.7,106.4,276.5,106.4L276.5,106.4z"/>
	</g>
	<path id="c_1_" class="st0" d="M137.3,82.3c0,0,2.4-4,2.7-8.6c0.3-4.5-1.1-6-2.7-6c-1.7,0-5,0.6-8.8,3.6c0,0-7.1,4.9-11.3,15.5
		s1.1,15,1.1,15s2.4,4.1,11,2.7c0,0,8.5-2.4,13.8-7.3v2c0,0-8.5,5.6-13.1,7.2c-4.7,1.7-14.6,3.9-21-1.4c-1.2-1.6-2.2-3.4-2.8-5.3
		c-1.8-5.7-0.2-10.6,0.5-12.4c2.5-5.7,6.5-10.6,11.6-14.2c2.2-1.6,8.6-6,17.3-6.3c0.7,0,1.4,0,1.8,0c0.6,0,1.3,0.1,2,0.2
		c2.1,0.2,4.2,0.8,6.2,1.6c0,0,5.2,2.2,2.9,7.8c-2.3,5.6-6.3,6-6.3,6S140.1,83.2,137.3,82.3z"/>
	<path id="t_1_" class="st0" d="M167.4,54.7l11.7-0.5L170,68.4h13.9l-1,2h-14.3c0,0-13.9,22.9-15.3,26.1c0,0-2.6,4.7-1.9,7
		c0,0,0.4,2.7,3.1,2.5c2.7-0.2,4.7-1.3,9-3.8s-3.4,2.8-3.4,2.8s-5.7,3.9-11.6,2.5c0,0-5.2-0.6-5.7-4.9c0,0-1-3.5,1.6-9.1
		c2.5-5.6,13.4-21.8,13.7-23.1H150l0.7-1.9h8.4L167.4,54.7z"/>
</g>
<g id="brushCircle_2_" class="st1">
	<path class="st2" d="M216.4,101.9c-0.2,1.7-0.6,3.7-1.1,5.6c-0.2,0.7-0.4,1.3-0.6,2l-0.9,2.5l-0.2,0.6l-0.1,0.3l-0.1,0.3l-0.5,1.2
		l-0.5,1.2c-0.2,0.4-0.3,0.8-0.5,1.2l-1.1,2.2l-0.2,0.6l-0.2,0.6l-0.6,1.1l-0.6,1.1l-0.3,0.5c-0.1,0.2-0.2,0.3-0.3,0.5
		c-0.8,1.3-1.6,2.6-2.5,3.7l0.6-0.8l0.2-0.4l0.2-0.4l0.9-1.5c0.2-0.5,0.6-0.9,0.7-1.3l0.6-1.2c0.4-0.7,0.7-1.4,1.1-2.1l0.8-1.9
		c0.6-1.2,0.9-2.4,1.4-3.7l0.4-1.1l0.4-1.1l0.4-1.2l0.2-0.7l0.1-0.4l0.1-0.4c-0.1,0.4-0.2,0.7-0.4,1.1l-0.4,1.1l-0.4,1
		c-0.1,0.3-0.2,0.7-0.4,1c0.1-0.2,0.2-0.6,0.2-0.9l0.2-0.9l0.5-1.7c-0.2,0.4-0.2,0.4-0.2,0.2c0-0.1,0.1-0.2,0.1-0.4
		c0.1-0.2,0.1-0.4,0.1-0.6c0.2-0.9,0.4-1.9,0.2-1.7c-1.2,4.1-2.7,8.1-4.5,12c3-6.2,1.3-2,0.6-0.1c-0.5,1-1.1,2-1.6,2.9l-0.2,0.4
		l-0.2,0.4l-0.4,0.7l-0.9,1.4c0.9-1.3,3-4.9,0.6-0.6c-0.7,1.2-1.5,2.5-2.4,3.9c-0.1,0.2-0.2,0.3-0.3,0.5l-0.4,0.5l-0.7,1l-0.7,0.9
		c-0.1,0.1-0.2,0.3-0.4,0.4l-0.4,0.4l0.4-0.6l0.4-0.6l0.7-1.1l0.7-1.1c0.2-0.4,0.4-0.7,0.6-1.2l-0.4,0.6l-0.2,0.3l-0.2,0.3l-0.8,1.2
		l-0.8,1.2c-0.2,0.4-0.6,0.7-0.9,1.1l-0.9,1.1l-0.4,0.5c-0.1,0.2-0.3,0.4-0.4,0.5l-1.8,2c-2.5,2.5-5,5-8.1,7.6l-2.2,1.2l-0.7,0.6
		c-0.2,0.2-0.5,0.4-0.7,0.6l-1.6,1.1c-0.2,0.2-0.5,0.4-0.8,0.6l-0.8,0.5l-1.6,1.1l0.6-0.6l-0.9,0.6c-0.3,0.2-0.7,0.4-1,0.6l-2,1.1
		c-0.3,0.2-0.7,0.4-1,0.5l-1,0.5c-0.7,0.3-1.4,0.7-2.1,1c-1.1,0.5-2,0.9-2.7,1.3c-0.7,0.3-1.2,0.6-1.7,0.7c-0.8,0.4-1.2,0.6-1.6,0.8
		l-2.7,0.9l-0.6,0.2l-0.6,0.2l-1.2,0.4l-1.1,0.3c-0.4,0.1-0.7,0.2-1,0.2c-0.6,0.1-1.1,0.2-1.5,0.3c0.7-0.2,1.4-0.4,2.1-0.6l2.1-0.7
		l-2,0.5c-0.2,0.1-0.3,0.1-0.5,0.1l-0.5,0.1l-1,0.2c1.4-0.2,0.6-0.1-0.7,0.3l-1,0.2c-0.4,0.1-0.7,0.1-1.1,0.2
		c-0.7,0.1-1.2,0.2-1.5,0.3l-0.8,0.1c-0.2,0.1-0.5,0.1-0.7,0.1l-1.3,0.2l-2.1,0.2c-1.1,0.1-1.8,0.1-2.4,0.2l-0.9,0.1h0.1h-0.5
		l-3-0.1c-0.4,0-0.7,0-1.1,0h-1.1h-1.1h-0.6c-0.2,0-0.4,0-0.6-0.1l-2.2-0.2c-0.4,0-0.7-0.1-1.1-0.1l-1-0.1l-1.8-0.2l-0.7-0.1
		l-0.7-0.1c-0.8-0.1-1.3-0.2-1.4-0.1l-1-0.2l-0.5-0.1c-0.2-0.1-0.3-0.1-0.5-0.1l-2-0.5l-1-0.2c-0.3-0.1-0.7-0.2-1-0.3l-2-0.6
		c-0.7-0.2-1.3-0.4-2-0.6l-1.9-0.7l-1.9-0.7l-0.9-0.4l-0.5-0.2l-0.5-0.2c-4.9-2.2-9.6-4.9-13.9-8c-0.3-0.2-0.6-0.4-0.9-0.6l-0.9-0.7
		l-1.9-1.3l-1.7-1.5c-0.6-0.5-1.1-0.9-1.6-1.4l-1.4-1.4c-0.2-0.2-0.4-0.4-0.7-0.7l-0.6-0.7c-0.8-0.9-1.7-1.7-2.4-2.5l-1.1-1.3
		c-0.2-0.2-0.4-0.4-0.6-0.6L86,133c-1.4-1.7-2.8-3.5-4.2-5.6c-0.7-1.1-1.4-2.1-2.1-3.2c-0.1,0-0.1,0.1-0.2,0.1
		c-0.2-0.7-0.4-1.3-0.6-2l0,0c0.8,1.4,1.7,3,2.4,4.6c0.3,0.7,0.6,1.4,0.9,2c0.7,1,1.4,2.1,1.8,3.2c1.1,1.4,1.8,3,2.2,4.7
		c0.1,0.1,0.2,0.3,0.4,0.4c0.2,0.2,0.4,0.5,0.7,0.7l0.7,0.7l1.4,1.4c0.2,0.2,0.5,0.5,0.7,0.7l0.7,0.7l1.5,1.4l1.6,1.2l0.7,0.6
		c0.2,0.2,0.5,0.4,0.7,0.6l1.6,1.1l0.7,0.6c0.1,0.1,0.2,0.2,0.4,0.2l0.4,0.2c1,0.7,1.8,1.3,2.5,1.8s1.2,0.8,1.7,1.1s0.9,0.5,1.2,0.7
		c0.3,0.2,0.6,0.3,0.9,0.4c0.6,0.2,1.1,0.5,2,0.9c0.4,0.2,1,0.5,1.7,0.8l1.1,0.6l0.6,0.3l0.4,0.2l0.4,0.2c0.6,0.3,1.3,0.6,2.1,0.9
		c0.4,0.2,0.7,0.4,1.1,0.5l1.2,0.5l1.2,0.5l0.6,0.2c0.2,0.1,0.4,0.1,0.6,0.2l2.5,0.9c0.4,0.1,0.8,0.2,1.2,0.4l1.2,0.4
		c0.8,0.2,1.6,0.4,2.2,0.6c0.7,0.2,1.4,0.3,1.9,0.5l0.8,0.2l0.7,0.2l-0.7-0.1l-0.6-0.1l-1.2-0.2l-1.1-0.2c-0.4-0.1-0.7-0.1-1-0.2
		c-1.3-0.3-2.4-0.6-3.5-0.8c-1.1-0.3-2.2-0.6-3.5-1.1c-0.6-0.2-1.4-0.5-2.1-0.8c-0.4-0.1-0.8-0.3-1.2-0.5l-1.3-0.6
		c0.7,0.4,0.2,0.2-0.7-0.2l-0.8-0.4c-0.1-0.1-0.3-0.1-0.4-0.2l-0.5-0.2l-2-1c-0.7-0.3-1.3-0.7-1.8-0.9c-0.5-0.3-0.9-0.5-1.2-0.6
		c-0.5-0.2-0.2-0.1,1.4,0.9c3.7,1.9,7.5,3.6,11.4,5c4.1,1.4,8.3,2.5,12.6,3.3c4.2,0.7,8.5,1.1,12.7,1.1c3.9-0.1,7.8-0.4,11.6-1.1
		c-0.5,0.3,4-0.2,9.2-1.7l1-0.3l0.5-0.1c0.2-0.1,0.3-0.1,0.5-0.2l2-0.7l1-0.4l1-0.4l1.9-0.7c0.6-0.2,1.2-0.6,1.8-0.8l1.6-0.7
		c0.5-0.2,1-0.5,1.4-0.7l1.2-0.6l0.4-0.1c0.3-0.2,0.6-0.3,0.9-0.4l0.9-0.5l1.7-0.9c0.6-0.3,1.1-0.7,1.7-1l1.7-1.1
		c0.6-0.4,1.2-0.8,1.8-1.2s1.2-0.9,1.9-1.4l2.1-1.7c0.7-0.6,1.5-1.3,2.3-2.1c3.8-3.4,7.3-7.2,10.3-11.3c2.8-3.8,5.3-7.8,7.5-11.9
		c0.4-0.7,0.7-1.5,1.1-2.2l0.6-1.1c0.2-0.4,0.3-0.7,0.5-1.2l0.9-2.4c0.2-0.8,0.6-1.6,0.8-2.4l0.1-0.3c0.4-1.4,0.8-2.9,1.1-4.6
		c0.6-2.9,0.7-5.4,0.8-7.6c-0.2,0.7-0.3,1.4-0.4,2.2C216.6,101,216.5,101.5,216.4,101.9z"/>
	<path class="st2" d="M212.7,57.6c0.1,0.2,0.2,0.5,0.3,0.7l0.2,0.6l0.4,1.1c0.2,0.7,0.5,1.3,0.7,1.8c0.4,1,0.6,1.7,0.8,2.2
		c0.1,0.3,0.2,0.6,0.4,0.9l0.4,1.1c0.1,0.2,0.1,0.4,0.2,0.6c-0.1-0.9-0.1-1.8,0.1-2.7c0-0.1,0-0.1,0-0.1c-0.1-0.3-0.2-0.6-0.3-0.9
		c-0.4-1-0.8-2.1-1-3.2c-0.4-0.9-0.7-1.9-0.9-2.8c-0.2-0.5-0.4-1.1-0.5-1.6l-0.5-1.1c-0.2-0.4-0.4-0.8-0.6-1.2l-0.6-1.2l-0.6-1.1
		c-0.2-0.4-0.4-0.7-0.6-1.1l-1.3-2.2c-0.5-0.7-0.9-1.4-1.4-2.1l-0.7-1.1l-0.7-1l-1.6-2.1l-1.7-2l-0.4-0.5c-0.1-0.2-0.3-0.4-0.4-0.5
		l-0.9-1l-0.9-1.1c-0.2-0.2-0.3-0.4-0.5-0.5l-0.5-0.5l-2.1-2.1l-2.2-2.1c-0.4-0.4-0.8-0.7-1.2-1.1l-1.2-1.1
		c-5.5-4.7-11.7-8.5-18.3-11.4l-1.2-0.5c-0.4-0.2-0.8-0.3-1.2-0.5l-2.4-0.9l-2.4-0.8l-1.2-0.4l-1.2-0.4c-0.8-0.2-1.7-0.5-2.5-0.7
		l-2.6-0.6c-0.9-0.2-1.8-0.4-2.7-0.6l-1.4-0.2c-0.2-0.1-0.5-0.1-0.7-0.1l-0.7-0.1c-0.9,0-1.9,0-2.7-0.1c-0.6-0.1-1.2-0.1-1.9-0.1
		l-2.2-0.1l-2.5-0.1h-1.4H142h-1.4c-0.5,0-1,0-1.5,0.1l-3,0.2c-4.2,0.4-8.3,1.1-12.3,2.1l-2.8,0.8c-0.9,0.3-1.8,0.6-2.6,0.9
		c-0.4,0.1-0.8,0.3-1.2,0.4l-1.1,0.5c-0.7,0.3-1.4,0.6-2.1,0.9c-3.5,1.6-6,3-7,3.8c-0.5,0.4-0.7,0.5-0.4,0.4
		c0.2-0.1,0.6-0.2,0.8-0.4c0.4-0.2,0.9-0.4,1.6-0.7c-4.6,2.4-6.2,3.5-7.7,4.4c-0.7,0.5-1.4,0.9-2.4,1.6c-0.5,0.3-1,0.7-1.6,1.2
		l-1,0.8c-0.4,0.3-0.7,0.6-1.2,1c0.3-0.4,0.7-0.7,1.1-1.1l1.1-1.1l-1.8,1.3c-0.6,0.5-1.2,1-1.9,1.5l-1,0.8c-0.3,0.2-0.6,0.6-0.9,0.9
		c-0.6,0.6-1.3,1.2-2,1.9l-1.4,1.7c-0.4,0.6-0.9,1.1-1.3,1.7c-1.6,1.7-3.2,3.5-4.6,5.5c-0.6,0.9-1.2,1.7-1.8,2.7l-1.7,2.7
		c-0.5,0.9-1,1.9-1.6,2.8c-0.1,0.2-0.2,0.5-0.4,0.7l-0.4,1l-0.7,1.5l-0.4,0.8c-0.1,0.2-0.2,0.6-0.4,0.8l-0.7,1.7l-0.4,0.9
		c-0.1,0.3-0.2,0.6-0.4,0.9l-0.8,1.9c1.5-3.4,1.2-2.5,0.6-1l-0.4,1.2c-0.1,0.2-0.2,0.4-0.2,0.6L72.5,62c-0.2,0.7-0.3,1.2-0.2,1.1
		c-0.2,0.4-0.4,1.1-0.7,1.9l-0.7,2.5l-0.1,0.4c0.2,1.5,0.1,3-0.2,4.5c0,0.7,0,1.5,0,2.2c0,1.9-0.4,3.6-1.2,5.1
		c0,0.1-0.1,0.2-0.1,0.3c0.2,1.1,0.3,2.2,0.2,3.4c0.7,2.5,0.7,5.2,0,7.7c0,0.1,0,0.1,0,0.1s0.1-0.6,0.4-1.7c0-0.1-0.1,1.1-0.1,1.1
		s0-1,0.1-1.1c0.2,0,0.9,6.3,0.9,6.3s-0.2-3.4-0.6-3.4C70,92.4,70,93,70,93c-0.1,0,0.1-1.8,0.1-1.8c0.4-3.5,0-8.5,0.5-13.6
		c0.3-3.3,0.6-5.7,0.9-7.6l0.2-1.1c0.1-0.4,0.2-0.7,0.3-1.1c0.2-0.7,0.4-1.5,0.6-2.3c0.2-0.7,0.5-1.5,0.7-2.3l0.4-1.1
		c0.1-0.4,0.3-0.7,0.4-1.1l0.9-2.2c0.3-0.7,0.7-1.4,1-2.1c0.6-1.4,1.4-2.6,1.9-3.8l-0.7,1.6c-0.2,0.5-0.5,1.1-0.7,1.6l0.2-0.5
		c0.1-0.2,0.2-0.3,0.2-0.5l0.6-0.9c0.4-0.6,0.7-1.2,1.1-1.9l1.2-2.2c0.2-0.3,0.4-0.6,0.6-0.9l0.5-0.8c0.7-1.1,1.2-1.9,1.9-2.9
		s1.3-1.9,2.3-3.1l0.7-1c0.2-0.3,0.6-0.7,0.9-1.1c0.6-0.7,1.3-1.6,2.1-2.5c2.3-2.4,4-4,5.3-5.3c1.3-1.2,2.2-2.1,2.9-2.7
		c0.7-0.6,1.2-1.2,1.8-1.7c0.6-0.6,1.4-1.2,2.5-2.1c3.7-2.3,7.5-4.3,11.4-6l-0.3,0.1l1.2-0.6c0.4-0.2,0.7-0.4,1.1-0.5
		c0.7-0.3,1.2-0.6,1.8-0.8l0.8-0.4l0.4-0.2l0.4-0.1c0.6-0.2,1.1-0.4,1.8-0.6l1.1-0.4c0.4-0.1,0.8-0.2,1.2-0.4l1.4-0.4
		c0.5-0.1,1.1-0.3,1.7-0.4l2-0.4c0.4-0.1,0.7-0.2,1.1-0.2l1.2-0.2l1.3-0.2c0.4-0.1,0.9-0.2,1.4-0.2l3.1-0.4l-0.9-0.2
		c0.4,0,0.7-0.1,1.1-0.1l1.1-0.1c0.7-0.1,1.3-0.1,1.9-0.1c0.3,0,0.6-0.1,0.9-0.1l0.9-0.1l1.8-0.1l0.9-0.1h3c0.4,0,0.7,0,1.1,0
		l1.2,0.1l1.3,0.1l0.7,0.1h0.4l0.4,0.1c3.4,0.4,6.7,1.1,9.9,1.9c0.2,0.1,0.5,0.1,0.8,0.2l0.8,0.2l1.6,0.5c1.1,0.3,2.1,0.7,3.1,1
		l1.5,0.5l1.4,0.6l1.4,0.5c0.2,0.1,0.4,0.1,0.6,0.2l0.6,0.2l2.3,1.1c0.4,0.2,0.7,0.4,1.1,0.6l1.1,0.6l1,0.5c0.2,0.1,0.3,0.2,0.5,0.2
		l0.5,0.2l1.9,1.1c0.3,0.2,0.6,0.3,0.9,0.5l0.9,0.5l1.7,1l0.4,0.2l0.4,0.2l0.8,0.5l1.6,1.1c0.2,0.2,0.5,0.4,0.7,0.6l0.7,0.6l1.5,1.1
		c1,0.7,1.9,1.6,2.9,2.4c0.5,0.4,0.9,0.9,1.4,1.3c0.5,0.4,1,0.9,1.4,1.4l1.4,1.5l0.7,0.8c0.2,0.2,0.5,0.6,0.7,0.8
		c0.6,0.7,1.1,1.4,1.7,2l1.5,1.9c1,1.2,1.7,2.3,2.4,3.2l0.5,0.7c0.2,0.2,0.3,0.4,0.4,0.6c0.2,0.4,0.5,0.8,0.7,1.1
		c0.3,0.5,0.6,1,0.7,1.6c-0.2-0.4-0.5-0.7-0.7-1.1c0.2,0.4,0.4,0.8,0.6,1.2l0.5,1.2l0.4,0.1l0.8,1.5c0.2,0.5,0.6,1.1,0.8,1.6
		l0.9,1.7l0.7,1.7c0.2,0.6,0.5,1.2,0.7,1.7l0.6,1.7c0.2,0.6,0.4,1.1,0.6,1.6s0.2,1,0.4,1.4c0.6,1.4,1.1,2.9,1.6,4.4
		c0.1,0,0.2-0.1,0.3-0.1c-0.1-0.2-0.1-0.4-0.1-0.6c-0.2-0.7-0.4-1.3-0.6-2v0.3c-0.2-0.6-0.5-1.4-0.8-2.4c-0.2-0.5-0.3-1-0.6-1.5
		l-0.6-1.6l-0.6-1.6l-0.7-1.5c-0.4-1-0.8-1.9-1.1-2.5c0.1,0.2,0.3,0.5,0.4,0.8l0.4,0.8l0.8,1.6C210.6,53.4,212.2,56.5,212.7,57.6z"
		/>
</g>
</svg>
